HIERARCHY
ROOT Hips
{
  OFFSET 2.26061 22.2878 23.7974
  CHANNELS 6 Xposition Yposition Zposition Zrotation Xrotation Yrotation
  JOINT LeftUpLeg
  {
    OFFSET 8.64259 1.95398 -2.38835
    CHANNELS 3 Zrotation Xrotation Yrotation
    JOINT LeftLeg
    {
      OFFSET 43.7702 0 0
      CHANNELS 3 Zrotation Xrotation Yrotation
      JOINT LeftFoot
      {
        OFFSET 40.6238 0 0
        CHANNELS 3 Zrotation Xrotation Yrotation
        JOINT LeftToeBase
        {
          OFFSET 12.7242 0 0
          CHANNELS 3 Zrotation Xrotation Yrotation
          End Site
          {
            OFFSET 0 0 0
          }
        }
      }
    }
  }
  JOINT RightUpLeg
  {
    OFFSET -8.2249 1.95398 -2.59336
    CHANNELS 3 Zrotation Xrotation Yrotation
    JOINT RightLeg
    {
      OFFSET 43.5653 0 0
      CHANNELS 3 Zrotation Xrotation Yrotation
      JOINT RightFoot
      {
        OFFSET 40.6238 0 0
        CHANNELS 3 Zrotation Xrotation Yrotation
        JOINT RightToeBase
        {
          OFFSET 12.7242 0 0
          CHANNELS 3 Zrotation Xrotation Yrotation
          End Site
          {
            OFFSET 0 0 0
          }
        }
      }
    }
  }
  JOINT Spine
  {
    OFFSET 0.165834 0.87714 6.61349
    CHANNELS 3 Zrotation Xrotation Yrotation
    JOINT Spine1
    {
      OFFSET 7.38963 1.71661e-005 0
      CHANNELS 3 Zrotation Xrotation Yrotation
      JOINT Spine2
      {
        OFFSET 11.9445 1.14441e-005 0
        CHANNELS 3 Zrotation Xrotation Yrotation
        JOINT Spine3
        {
          OFFSET 14.7254 4.19617e-005 0
          CHANNELS 3 Zrotation Xrotation Yrotation
          JOINT Spine4
          {
            OFFSET 10.9679 0 0
            CHANNELS 3 Zrotation Xrotation Yrotation
            JOINT RightShoulder
            {
              OFFSET 2.46616 -1.6653 3.69651
              CHANNELS 3 Zrotation Xrotation Yrotation
              JOINT RightArm
              {
                OFFSET 13.0012 0 0
                CHANNELS 3 Zrotation Xrotation Yrotation
                JOINT RightForeArm
                {
                  OFFSET 28.7848 1.52588e-005 0
                  CHANNELS 3 Zrotation Xrotation Yrotation
                  JOINT RightHand
                  {
                    OFFSET 26.5688 1.52588e-005 0
                    CHANNELS 3 Zrotation Xrotation Yrotation
                    End Site
                    {
                      OFFSET 0 0 0
                    }
                  }
                }
              }
            }
            JOINT LeftShoulder
            {
              OFFSET 2.38034 -1.29275 -3.7523
              CHANNELS 3 Zrotation Xrotation Yrotation
              JOINT LeftArm
              {
                OFFSET 16.3182 6.10351e-005 0
                CHANNELS 3 Zrotation Xrotation Yrotation
                JOINT LeftForeArm
                {
                  OFFSET 27.0901 0 0
                  CHANNELS 3 Zrotation Xrotation Yrotation
                  JOINT LeftHand
                  {
                    OFFSET 24.5451 1.52588e-005 0
                    CHANNELS 3 Zrotation Xrotation Yrotation
                    End Site
                    {
                      OFFSET 0 0 0
                    }
                  }
                }
              }
            }
            JOINT Neck
            {
              OFFSET 5.0226 -0.0266342 0
              CHANNELS 3 Zrotation Xrotation Yrotation
              JOINT Head
              {
                OFFSET 6.69363 2.86102e-005 0
                CHANNELS 3 Zrotation Xrotation Yrotation
                End Site
                {
                  OFFSET 0 0 0
                }
              }
            }
          }
        }
      }
    }
  }
}
MOTION
Frames:	9
Frame Time:	0.0416667
-53.7208 97.5834 47.8437 -133.26 -87.5244 -133.931 -172.185 4.57849 91.0701 -17.8805 13.2998 0.400377 59.1928 0.826572 1.60859 37.0013 6.47716 1.07093 174.514 5.00224 88.8841 -21.0439 -5.91139 -3.88653 63.1221 -2.22143 -1.21074 36.8526 0.382739 -3.33346 0.148168 6.95735 -90.0018 12.9593 0.293335 -0.0392983 1.28835 0.291319 -0.0521718 -21.2471 0.291584 0.0506808 -1.23442 0.291578 0.0506716 85.5816 -54.0201 -106.352 10.462 -11.2098 -26.5625 8.78338 -22.61 -39.6102 -8.67531 -0.741632 2.56642 -113.051 -52.2883 46.8861 3.31764 17.8455 -24.0623 -7.91708 2.07793 -31.66 10.3629 0.164312 -2.08664 4.2693 2.04038 6.54971 17.6786 1.35906 1.85764 
-53.8213 97.055 46.4091 -103.61 -86.9552 -103.975 -172.025 5.77538 91.0271 -17.2392 12.2357 0.136415 60.8261 2.23214 3.95261 36.6906 6.21414 -0.360011 174.988 5.81133 89.676 -19.1624 -4.56827 -3.70942 65.308 -3.04449 -1.66346 34.1152 0.296188 -1.54831 0.199843 7.15706 -90.0555 12.5601 0.370621 -0.153727 0.889143 0.363496 -0.169889 -21.6464 0.399682 -0.0352304 -1.63378 0.399684 -0.03523 85.9629 -55.1611 -105.484 13.6094 -8.14766 -16.9684 6.60104 -29.1566 -31.6036 -8.00786 -1.09507 6.54074 -115.403 -53.066 44.1819 -1.73302 19.3155 -16.1243 -6.63714 13.5976 -21.5525 11.5494 0.942328 3.97758 5.08209 1.91245 7.15744 19.5578 1.04187 1.50551 
-53.8927 96.8403 44.9378 -70.6234 -85.8902 -70.7002 -172.232 8.63467 90.9563 -17.352 9.39343 0.156723 62.266 2.83698 2.82228 34.3329 4.38877 -0.764787 175.623 7.99319 90.2824 -17.7362 -5.15659 -3.72249 65.625 -3.248 -1.77573 32.7717 0.243541 -1.42354 0.137369 7.29418 -90.0649 12.2856 0.242272 -0.157199 0.614696 0.235118 -0.16772 -21.9206 0.278314 -0.0771199 -1.90796 0.278318 -0.0771177 87.5012 -55.5622 -103.182 15.3174 -6.16577 -5.54779 2.74275 -33.4659 -29.8433 -5.05743 -1.09159 9.33879 -113.409 -53.785 47.1647 -9.79579 20.2121 -3.63062 -5.50307 16.185 -19.9468 11.9238 1.12138 5.16362 6.41578 2.4038 6.60606 21.6457 1.65613 1.93436 
-53.9425 96.7556 43.3052 -53.3382 -84.5243 -53.2228 -172.38 10.7357 91.062 -15.9939 9.32112 0.0433607 63.6002 3.40522 1.79431 31.388 1.74838 4.67592 176.105 10.0958 90.7471 -16.2863 -5.69429 -3.64713 65.6679 -3.37923 -1.86142 35.477 0.35301 -2.00286 0.0392977 7.4632 -90.001 11.9476 0.077754 -0.0100673 0.276623 0.0772303 -0.0134888 -22.2586 0.0771771 0.0137593 -2.24591 0.0771823 0.0137668 88.7387 -55.7163 -101.375 14.7662 -7.56961 5.49468 1.90127 -34.1095 -31.5894 -4.07877 -0.988112 8.97867 -110.041 -53.655 51.5699 -16.7444 21.3848 9.67371 -3.36223 15.4723 -23.8575 7.29187 0.655558 4.45721 7.15397 2.60737 5.06945 23.3012 2.24381 2.51201 
-53.9972 96.8459 41.8879 -39.012 -82.9549 -38.6872 -172.481 13.0541 91.1619 -14.8279 8.96584 -0.0871377 64.4469 3.97692 1.85415 34.2193 4.14625 5.54668 175.976 11.6405 91.0461 -13.7073 -5.60664 -3.07784 66.9175 -3.85242 -2.09554 42.2521 0.428305 -4.58476 -0.0160797 7.57154 -89.9674 11.7308 -0.0166359 0.0667129 0.0598471 -0.013685 0.067376 -22.4753 -0.0359152 0.0586336 -2.46265 -0.0359259 0.0586199 89.4692 -54.5327 -100.588 16.0278 -9.31151 14.0548 1.46444 -35.8234 -32.3228 -4.8746 -1.10139 9.39729 -107.258 -52.8321 54.9577 -23.394 21.8102 19.9235 -3.0495 12.5794 -27.1774 9.21072 0.800601 4.39874 7.95479 2.69843 4.10968 23.3963 2.53691 2.76026 
-54.1016 96.9455 40.7495 -32.177 -80.7124 -31.4531 -172.362 15.083 91.4526 -13.4563 8.30873 -0.318038 67.1269 6.16397 3.0562 40.7445 9.86841 6.8427 175.942 12.0849 91.5605 -9.41344 -5.67677 -2.49929 69.2654 -4.8488 -2.57485 44.7703 0.21147 -7.88051 0.0439258 7.61454 -89.9394 11.6447 0.115819 0.108709 -0.0262759 0.120497 0.103506 -22.5614 0.0777907 0.138496 -2.54878 0.0777972 0.138494 89.1776 -53.9037 -101.154 17.8051 -9.85143 19.7374 1.95195 -36.2874 -31.5504 -3.90542 -1.01628 9.38095 -104.975 -52.1259 57.7955 -27.4455 22.0966 25.6356 -3.56931 10.7223 -28.5339 10.3102 0.752432 3.20553 9.97055 2.74029 2.24693 22.0356 3.02998 3.54385 
-54.0571 97.0379 39.8425 -28.6631 -79.4229 -27.5082 -172.22 16.1665 91.6584 -12.7343 7.20427 -0.411297 71.3378 9.13343 2.09395 43.5529 12.813 10.8911 175.49 12.1928 91.8991 -6.56899 -4.34739 -1.61932 71.8284 -5.77584 -2.9309 48.2986 -0.148831 -10.4509 0.0495317 7.67422 -89.9211 11.5253 0.135502 0.143331 -0.14563 0.141674 0.137217 -22.6807 0.0861536 0.177415 -2.66809 0.0861582 0.177429 89.4333 -53.4637 -100.879 19.6594 -9.45428 22.4883 1.00057 -36.3398 -31.5692 -3.3061 -0.926414 8.44719 -104.114 -51.5822 58.7695 -30.0258 21.7847 28.8754 -4.01881 9.52081 -28.9719 11.3574 0.710565 2.27563 11.2213 2.42507 1.65089 21.4736 2.67173 2.94484 
-54.0718 96.9778 39.1531 -25.4532 -78.4269 -24.2157 -172.518 17.3441 91.5064 -12.5274 7.22322 -0.273936 73.7011 11.1993 2.01956 44.0779 13.7281 13.9885 175.58 13.3696 92.1206 -6.29924 -4.75607 -1.47793 74.0896 -6.5181 -3.17366 48.5522 -0.0110275 -9.17283 0.0302794 7.70535 -89.8891 11.4631 0.112124 0.209593 -0.207898 0.121234 0.204444 -22.7429 0.0439448 0.233604 -2.73029 0.0439494 0.233605 89.6064 -53.2731 -100.668 20.7154 -9.42479 23.1891 1.78524 -35.1651 -31.1216 -5.38461 -1.06265 7.99009 -103.748 -51.4024 59.2096 -30.5894 21.4546 29.5138 -4.28092 9.15297 -28.4705 12.137 0.712853 1.93439 12.9648 2.3945 0.95771 20.4022 2.85475 3.45305 
-53.9939 96.9486 38.7851 -25.1627 -78.4318 -23.9549 -172.588 17.4127 91.3845 -12.3067 7.53301 -0.257164 74.1111 12.0304 3.22617 44.2993 13.8916 13.6011 175.819 13.6371 92.1617 -6.46841 -5.20006 -1.72415 74.4802 -6.73169 -3.25341 49.2438 -0.0197461 -9.09043 0.0596664 7.76168 -89.8821 11.3503 0.173758 0.217429 -0.320659 0.183152 0.209559 -22.8557 0.100371 0.259591 -2.84305 0.100374 0.259597 89.0416 -53.3331 -101.485 21.1942 -9.10621 23.5304 1.67585 -33.9713 -31.1767 -6.31893 -1.10617 7.66732 -103.866 -51.4927 59.0804 -29.8858 21.2673 28.7117 -4.13042 9.43961 -28.1329 12.0169 0.77206 2.45523 12.3897 2.41697 0.565 21.0362 3.17397 4.27615 
